# xmcd
#
# Track frame offsets:
#	150
#	18339
#	35127
#	55396
#	71268
#	85057
#	100561
#	116287
#	140217
#
# Disc length: 2095 seconds
#
# Revision: 2783985551
# Processed by: cddbd v1.5.2PL0 Copyright (c) Steve Scherf et al.
# Submitted via: EZCDAudioConverter 8.0.2.1
#
DISCID=72082d09
DTITLE=Dương Triệu Vũ - Siêu Nhân
DYEAR=2011
DGENRE=World Pop
TTITLE0=Siêu Nhân
TTITLE1=Biến đổi
TTITLE2=Tỉnh mộng
TTITLE3=Em có hay
TTITLE4=Anh không cần
TTITLE5=Sớm muộn gì cũng sẽ phôi pha
TTITLE6=Người về từ lòng đất
TTITLE7=Hận tình trong mưa
TTITLE8=Đừng tìm lại
EXTD=
EXTT0=
EXTT1=
EXTT2=
EXTT3=
EXTT4=
EXTT5=
EXTT6=
EXTT7=
EXTT8=
PLAYORDER=
